<svg width="221" height="47" viewBox="0 0 221 47" fill="none" xmlns="http://www.w3.org/2000/svg">
<path d="M20 11.8072C22.6506 11.8072 23.0121 11.8072 24.0964 11.8072C25.0602 11.8072 25.5422 12.0482 25.9036 12.1687C26.3855 12.4096 26.747 12.5301 27.1084 12.8916C27.4699 13.253 27.7108 13.6145 27.8313 14.0964C27.9518 14.4578 28.0723 14.9398 28.1928 15.9036C28.1928 16.988 28.1928 17.2289 28.1928 20C28.1928 22.7711 28.1928 23.0121 28.1928 24.0964C28.1928 25.0602 27.9518 25.5422 27.8313 25.9036C27.5904 26.3855 27.4699 26.747 27.1084 27.1084C26.747 27.4699 26.3855 27.7108 25.9036 27.8313C25.5422 27.9518 25.0602 28.0723 24.0964 28.1928C23.0121 28.1928 22.7711 28.1928 20 28.1928C17.2289 28.1928 16.988 28.1928 15.9036 28.1928C14.9398 28.1928 14.4578 27.9518 14.0964 27.8313C13.6145 27.5904 13.253 27.4699 12.8916 27.1084C12.5301 26.747 12.2892 26.3855 12.1687 25.9036C12.0482 25.5422 11.9277 25.0602 11.8072 24.0964C11.8072 23.0121 11.8072 22.7711 11.8072 20C11.8072 17.2289 11.8072 16.988 11.8072 15.9036C11.8072 14.9398 12.0482 14.4578 12.1687 14.0964C12.4096 13.6145 12.5301 13.253 12.8916 12.8916C13.253 12.5301 13.6145 12.2892 14.0964 12.1687C14.4578 12.0482 14.9398 11.9277 15.9036 11.8072C16.988 11.8072 17.3494 11.8072 20 11.8072ZM20 10C17.2289 10 16.988 10 15.9036 10C14.8193 10 14.0964 10.241 13.494 10.4819C12.8916 10.7229 12.2892 11.0843 11.6867 11.6867C11.0843 12.2892 10.8434 12.7711 10.4819 13.494C10.241 14.0964 10.1205 14.8193 10 15.9036C10 16.988 10 17.3494 10 20C10 22.7711 10 23.0121 10 24.0964C10 25.1807 10.241 25.9036 10.4819 26.506C10.7229 27.1084 11.0843 27.7108 11.6867 28.3133C12.2892 28.9157 12.7711 29.1566 13.494 29.5181C14.0964 29.759 14.8193 29.8795 15.9036 30C16.988 30 17.3494 30 20 30C22.6506 30 23.0121 30 24.0964 30C25.1807 30 25.9036 29.759 26.506 29.5181C27.1084 29.2771 27.7108 28.9157 28.3133 28.3133C28.9157 27.7108 29.1566 27.2289 29.5181 26.506C29.759 25.9036 29.8795 25.1807 30 24.0964C30 23.0121 30 22.6506 30 20C30 17.3494 30 16.988 30 15.9036C30 14.8193 29.759 14.0964 29.5181 13.494C29.2771 12.8916 28.9157 12.2892 28.3133 11.6867C27.7108 11.0843 27.2289 10.8434 26.506 10.4819C25.9036 10.241 25.1807 10.1205 24.0964 10C23.0121 10 22.7711 10 20 10Z" fill="#0390AB"/>
<path d="M20 14.8193C17.1084 14.8193 14.8193 17.1084 14.8193 20C14.8193 22.8916 17.1084 25.1807 20 25.1807C22.8916 25.1807 25.1807 22.8916 25.1807 20C25.1807 17.1084 22.8916 14.8193 20 14.8193ZM20 23.3735C18.1928 23.3735 16.6265 21.9277 16.6265 20C16.6265 18.1928 18.0723 16.6265 20 16.6265C21.8072 16.6265 23.3735 18.0723 23.3735 20C23.3735 21.8072 21.8072 23.3735 20 23.3735Z" fill="#0390AB"/>
<path d="M25.3012 15.9036C25.9666 15.9036 26.506 15.3642 26.506 14.6988C26.506 14.0334 25.9666 13.494 25.3012 13.494C24.6358 13.494 24.0964 14.0334 24.0964 14.6988C24.0964 15.3642 24.6358 15.9036 25.3012 15.9036Z" fill="#0390AB"/>
<path d="M79.6571 20.3648H83.3793L83.9637 16.5605H79.6563V14.4813C79.6563 12.901 80.1696 11.4996 81.6389 11.4996H84V8.17974C83.5852 8.12338 82.7078 8 81.05 8C77.5882 8 75.5587 9.8393 75.5587 14.0297V16.5605H72V20.3648H75.5587V30.821C76.2634 30.9276 76.9773 31 77.7101 31C78.3724 31 79.0189 30.9391 79.6571 30.8522V20.3648Z" fill="#0390AB"/>
<path fill-rule="evenodd" clip-rule="evenodd" d="M139.464 12.0322C132.996 12.0322 127.75 17.2784 127.75 23.7463C127.75 28.9206 131.128 33.3044 135.727 34.8854C136.302 34.9573 136.518 34.598 136.518 34.3105C136.518 34.0231 136.518 33.3044 136.518 32.2983C133.284 33.0169 132.565 30.7172 132.565 30.7172C132.062 29.3518 131.271 28.9925 131.271 28.9925C130.193 28.2738 131.343 28.2738 131.343 28.2738C132.493 28.3457 133.14 29.4955 133.14 29.4955C134.218 31.2922 135.871 30.7891 136.518 30.5016C136.589 29.7111 136.949 29.2081 137.236 28.9206C134.649 28.6331 131.918 27.627 131.918 23.0995C131.918 21.8059 132.349 20.7998 133.14 19.9374C133.068 19.7218 132.637 18.5001 133.284 16.9191C133.284 16.9191 134.29 16.6316 136.518 18.1408C137.452 17.8533 138.458 17.7815 139.464 17.7815C140.47 17.7815 141.476 17.9252 142.411 18.1408C144.638 16.6316 145.644 16.9191 145.644 16.9191C146.291 18.5001 145.86 19.7218 145.788 20.0093C146.507 20.7998 147.01 21.8778 147.01 23.1714C147.01 27.6989 144.279 28.6331 141.692 28.9206C142.123 29.2799 142.482 29.9986 142.482 31.0766C142.482 32.6576 142.482 33.8793 142.482 34.3105C142.482 34.598 142.698 34.9573 143.273 34.8854C147.944 33.3044 151.25 28.9206 151.25 23.7463C151.178 17.2784 145.932 12.0322 139.464 12.0322Z" fill="#0390AB"/>
<path d="M206.899 14.8077L203.368 33.2435C203.368 33.2435 202.874 34.5217 201.516 33.9087L193.369 27.4394L193.331 27.4203C194.431 26.3969 202.966 18.4507 203.339 18.0905C203.916 17.5327 203.558 17.2006 202.887 17.622L190.281 25.9123L185.417 24.2177C185.417 24.2177 184.652 23.9358 184.578 23.3228C184.504 22.7088 185.443 22.3767 185.443 22.3767L205.27 14.3221C205.27 14.3221 206.899 13.5807 206.899 14.8077Z" fill="#0390AB"/>
</svg>
