<svg width="24" height="23" viewBox="0 0 24 23" fill="none" xmlns="http://www.w3.org/2000/svg">
<path fill-rule="evenodd" clip-rule="evenodd" d="M11.7141 0C5.24618 0 0 5.24618 0 11.7141C0 16.8884 3.37768 21.2722 7.97706 22.8532C8.55199 22.9251 8.76758 22.5658 8.76758 22.2783C8.76758 21.9908 8.76758 21.2722 8.76758 20.2661C5.53364 20.9847 4.81498 18.685 4.81498 18.685C4.31193 17.3196 3.52141 16.9602 3.52141 16.9602C2.44342 16.2416 3.59327 16.2416 3.59327 16.2416C4.74312 16.3135 5.38991 17.4633 5.38991 17.4633C6.46789 19.2599 8.12079 18.7569 8.76758 18.4694C8.83945 17.6789 9.19878 17.1758 9.48624 16.8884C6.89908 16.6009 4.1682 15.5948 4.1682 11.0673C4.1682 9.7737 4.59939 8.76759 5.38991 7.9052C5.31804 7.6896 4.88685 6.46789 5.53364 4.88685C5.53364 4.88685 6.53975 4.59939 8.76758 6.10856C9.70183 5.8211 10.7079 5.74924 11.7141 5.74924C12.7202 5.74924 13.7263 5.89297 14.6605 6.10856C16.8884 4.59939 17.8945 4.88685 17.8945 4.88685C18.5413 6.46789 18.1101 7.6896 18.0382 7.97707C18.7569 8.76759 19.2599 9.84557 19.2599 11.1391C19.2599 15.6667 16.5291 16.6009 13.9419 16.8884C14.3731 17.2477 14.7324 17.9664 14.7324 19.0443C14.7324 20.6254 14.7324 21.8471 14.7324 22.2783C14.7324 22.5658 14.948 22.9251 15.5229 22.8532C20.1942 21.2722 23.5 16.8884 23.5 11.7141C23.4281 5.24618 18.182 0 11.7141 0Z" fill="#0390AB"/>
</svg>
