<svg width="69" height="69" viewBox="0 0 69 69" fill="none" xmlns="http://www.w3.org/2000/svg">
<circle cx="34.2476" cy="34.2476" r="34.2476" fill="#0390AB"/>
<path d="M24.7756 20.6973C24.0498 20.6973 23.3538 20.9856 22.8406 21.4988C22.3274 22.012 22.0391 22.708 22.0391 23.4338C22.0391 24.1595 22.3274 24.8556 22.8406 25.3688C23.3538 25.882 24.0498 26.1703 24.7756 26.1703C25.5013 26.1703 26.1974 25.882 26.7106 25.3688C27.2238 24.8556 27.5121 24.1595 27.5121 23.4338C27.5121 22.708 27.2238 22.012 26.7106 21.4988C26.1974 20.9856 25.5013 20.6973 24.7756 20.6973ZM22.2 28.4239C22.1573 28.4239 22.1164 28.4408 22.0862 28.471C22.056 28.5012 22.0391 28.5421 22.0391 28.5848V45.3258C22.0391 45.4147 22.1112 45.4868 22.2 45.4868H27.3511C27.3938 45.4868 27.4347 45.4698 27.4649 45.4396C27.4951 45.4094 27.5121 45.3685 27.5121 45.3258V28.5848C27.5121 28.5421 27.4951 28.5012 27.4649 28.471C27.4347 28.4408 27.3938 28.4239 27.3511 28.4239H22.2ZM30.5705 28.4239C30.5278 28.4239 30.4869 28.4408 30.4567 28.471C30.4265 28.5012 30.4095 28.5421 30.4095 28.5848V45.3258C30.4095 45.4147 30.4817 45.4868 30.5705 45.4868H35.7216C35.7643 45.4868 35.8052 45.4698 35.8354 45.4396C35.8656 45.4094 35.8826 45.3685 35.8826 45.3258V36.3114C35.8826 35.6711 36.1369 35.0569 36.5898 34.6041C37.0426 34.1513 37.6567 33.8969 38.2971 33.8969C38.9375 33.8969 39.5516 34.1513 40.0045 34.6041C40.4573 35.0569 40.7117 35.6711 40.7117 36.3114V45.3258C40.7117 45.4147 40.7838 45.4868 40.8726 45.4868H46.0237C46.0664 45.4868 46.1074 45.4698 46.1375 45.4396C46.1677 45.4094 46.1847 45.3685 46.1847 45.3258V34.2253C46.1847 31.0998 43.4675 28.6557 40.3575 28.9377C39.3954 29.0259 38.453 29.2641 37.5644 29.6434L35.8826 30.3645V28.5848C35.8826 28.5421 35.8656 28.5012 35.8354 28.471C35.8052 28.4408 35.7643 28.4239 35.7216 28.4239H30.5705Z" fill="white"/>
</svg>
