
<svg width="25" height="25" viewBox="0 0 25 25" fill="none" xmlns="http://www.w3.org/2000/svg">
<path d="M2.7365 0C2.01074 0 1.3147 0.288309 0.801504 0.801503C0.288309 1.3147 0 2.01074 0 2.7365C0 3.46227 0.288309 4.15831 0.801504 4.6715C1.3147 5.1847 2.01074 5.47301 2.7365 5.47301C3.46227 5.47301 4.15831 5.1847 4.6715 4.6715C5.1847 4.15831 5.47301 3.46227 5.47301 2.7365C5.47301 2.01074 5.1847 1.3147 4.6715 0.801503C4.15831 0.288309 3.46227 0 2.7365 0ZM0.160971 7.7266C0.118279 7.7266 0.077335 7.74356 0.0471471 7.77375C0.0169593 7.80393 0 7.84488 0 7.88757V24.6285C0 24.7174 0.0721149 24.7895 0.160971 24.7895H5.31204C5.35473 24.7895 5.39567 24.7725 5.42586 24.7424C5.45605 24.7122 5.47301 24.6712 5.47301 24.6285V7.88757C5.47301 7.84488 5.45605 7.80393 5.42586 7.77375C5.39567 7.74356 5.35473 7.7266 5.31204 7.7266H0.160971ZM8.53145 7.7266C8.48876 7.7266 8.44782 7.74356 8.41763 7.77375C8.38744 7.80393 8.37048 7.84488 8.37048 7.88757V24.6285C8.37048 24.7174 8.4426 24.7895 8.53145 24.7895H13.6825C13.7252 24.7895 13.7662 24.7725 13.7963 24.7424C13.8265 24.7122 13.8435 24.6712 13.8435 24.6285V15.6142C13.8435 14.9738 14.0979 14.3596 14.5507 13.9068C15.0035 13.454 15.6177 13.1996 16.2581 13.1996C16.8984 13.1996 17.5126 13.454 17.9654 13.9068C18.4182 14.3596 18.6726 14.9738 18.6726 15.6142V24.6285C18.6726 24.7174 18.7447 24.7895 18.8336 24.7895H23.9847C24.0273 24.7895 24.0683 24.7725 24.0985 24.7424C24.1287 24.7122 24.1456 24.6712 24.1456 24.6285V13.528C24.1456 10.4026 21.4284 7.9584 18.3185 8.24042C17.3563 8.32868 16.4139 8.56679 15.5253 8.94611L13.8435 9.66726V7.88757C13.8435 7.84488 13.8265 7.80393 13.7963 7.77375C13.7662 7.74356 13.7252 7.7266 13.6825 7.7266H8.53145Z" fill="#0390AB"/>
</svg>
