<svg width="348" height="69" viewBox="0 0 348 69" fill="none" xmlns="http://www.w3.org/2000/svg">
<circle cx="34.2476" cy="34.2476" r="34.2476" fill="#0390AB"/>
<path d="M22.5215 32.4481C22.5215 27.592 22.5215 25.1632 24.0307 23.6553C25.54 22.1473 27.9674 22.146 32.8236 22.146H35.3992C40.2553 22.146 42.684 22.146 44.192 23.6553C45.7 25.1645 45.7013 27.592 45.7013 32.4481V35.0237C45.7013 39.8798 45.7013 42.3086 44.192 43.8165C42.6828 45.3245 40.2553 45.3258 35.3992 45.3258H32.8236C27.9674 45.3258 25.5387 45.3258 24.0307 43.8165C22.5228 42.3073 22.5215 39.8798 22.5215 35.0237V32.4481Z" stroke="white" stroke-width="3.08333"/>
<path d="M39.9063 29.8726C40.9731 29.8726 41.8379 29.0077 41.8379 27.9409C41.8379 26.8741 40.9731 26.0093 39.9063 26.0093C38.8394 26.0093 37.9746 26.8741 37.9746 27.9409C37.9746 29.0077 38.8394 29.8726 39.9063 29.8726Z" fill="white"/>
<path d="M34.1113 37.5992C36.245 37.5992 37.9746 35.8695 37.9746 33.7359C37.9746 31.6022 36.245 29.8726 34.1113 29.8726C31.9777 29.8726 30.248 31.6022 30.248 33.7359C30.248 35.8695 31.9777 37.5992 34.1113 37.5992Z" stroke="white" stroke-width="3.08333"/>
<circle cx="127.416" cy="34.2476" r="34.2476" fill="#0390AB"/>
<path fill-rule="evenodd" clip-rule="evenodd" d="M128.159 20.474C129.619 20.4517 131.069 20.4628 132.518 20.4517C132.607 22.1574 133.22 23.8965 134.469 25.1004C135.717 26.3379 137.479 26.9065 139.195 27.096V31.5887C137.59 31.5329 135.974 31.1985 134.513 30.5073C133.878 30.2175 133.287 29.8496 132.707 29.4705C132.696 32.7258 132.719 35.9811 132.685 39.2252C132.596 40.7859 132.083 42.3356 131.18 43.6176C129.72 45.7581 127.189 47.1515 124.592 47.1962C122.998 47.2853 121.403 46.8505 120.043 46.0479C117.792 44.7213 116.209 42.2909 115.974 39.6823C115.952 39.1248 115.941 38.5675 115.963 38.0212C116.164 35.903 117.212 33.8741 118.839 32.4917C120.69 30.8864 123.276 30.1171 125.695 30.5742C125.718 32.2242 125.651 33.8741 125.651 35.524C124.547 35.1672 123.254 35.2676 122.284 35.9365C121.582 36.3936 121.047 37.0959 120.768 37.8874C120.534 38.456 120.601 39.0803 120.612 39.6823C120.88 41.5106 122.641 43.049 124.514 42.8818C125.762 42.8707 126.955 42.146 127.602 41.0869C127.813 40.719 128.048 40.34 128.059 39.9052C128.17 37.9097 128.126 35.9253 128.137 33.9298C128.148 29.4371 128.126 24.9555 128.159 20.474Z" fill="white"/>
<circle cx="220.584" cy="34.2476" r="34.2476" fill="#0390AB"/>
<path d="M211.112 20.6973C210.386 20.6973 209.69 20.9856 209.177 21.4988C208.663 22.012 208.375 22.708 208.375 23.4338C208.375 24.1595 208.663 24.8556 209.177 25.3688C209.69 25.882 210.386 26.1703 211.112 26.1703C211.837 26.1703 212.533 25.882 213.047 25.3688C213.56 24.8556 213.848 24.1595 213.848 23.4338C213.848 22.708 213.56 22.012 213.047 21.4988C212.533 20.9856 211.837 20.6973 211.112 20.6973ZM208.536 28.4239C208.493 28.4239 208.452 28.4408 208.422 28.471C208.392 28.5012 208.375 28.5421 208.375 28.5848V45.3258C208.375 45.4147 208.447 45.4868 208.536 45.4868H213.687C213.73 45.4868 213.771 45.4698 213.801 45.4396C213.831 45.4094 213.848 45.3685 213.848 45.3258V28.5848C213.848 28.5421 213.831 28.5012 213.801 28.471C213.771 28.4408 213.73 28.4239 213.687 28.4239H208.536ZM216.906 28.4239C216.864 28.4239 216.823 28.4408 216.793 28.471C216.762 28.5012 216.745 28.5421 216.745 28.5848V45.3258C216.745 45.4147 216.818 45.4868 216.906 45.4868H222.058C222.1 45.4868 222.141 45.4698 222.171 45.4396C222.202 45.4094 222.218 45.3685 222.218 45.3258V36.3114C222.218 35.6711 222.473 35.0569 222.926 34.6041C223.379 34.1513 223.993 33.8969 224.633 33.8969C225.273 33.8969 225.888 34.1513 226.34 34.6041C226.793 35.0569 227.048 35.6711 227.048 36.3114V45.3258C227.048 45.4147 227.12 45.4868 227.209 45.4868H232.36C232.402 45.4868 232.443 45.4698 232.473 45.4396C232.504 45.4094 232.521 45.3685 232.521 45.3258V34.2253C232.521 31.0998 229.803 28.6557 226.693 28.9377C225.731 29.0259 224.789 29.2641 223.9 29.6434L222.218 30.3645V28.5848C222.218 28.5421 222.202 28.5012 222.171 28.471C222.141 28.4408 222.1 28.4239 222.058 28.4239H216.906Z" fill="white"/>
<circle cx="313.752" cy="34.2476" r="34.2476" fill="#0390AB"/>
<path d="M322.695 24.6054C321.514 23.413 320.108 22.4676 318.558 21.8243C317.008 21.1809 315.346 20.8524 313.668 20.858C306.636 20.858 300.906 26.5885 300.906 33.6197C300.906 35.8733 301.498 38.0625 302.606 39.9942L300.803 46.6133L307.564 44.8362C309.431 45.8535 311.53 46.3944 313.668 46.3944C320.699 46.3944 326.429 40.6638 326.429 33.6326C326.429 30.22 325.103 27.0135 322.695 24.6054ZM313.668 44.2309C311.762 44.2309 309.894 43.7158 308.259 42.75L307.873 42.5182L303.855 43.5742L304.924 39.6594L304.666 39.2602C303.607 37.5694 303.045 35.6148 303.043 33.6197C303.043 27.7733 307.808 23.0085 313.655 23.0085C316.488 23.0085 319.153 24.116 321.149 26.1249C322.138 27.1086 322.921 28.2788 323.454 29.5676C323.987 30.8563 324.258 32.2381 324.253 33.6326C324.279 39.4791 319.514 44.2309 313.668 44.2309ZM319.488 36.2983C319.166 36.1438 317.595 35.3711 317.312 35.2552C317.016 35.1522 316.81 35.1007 316.591 35.4097C316.372 35.7317 315.767 36.4528 315.586 36.6589C315.406 36.8778 315.213 36.9035 314.891 36.7361C314.569 36.5816 313.539 36.2339 312.328 35.1522C311.375 34.3023 310.744 33.2592 310.551 32.9372C310.371 32.6153 310.525 32.4479 310.693 32.2805C310.834 32.1388 311.015 31.907 311.169 31.7267C311.324 31.5464 311.388 31.4048 311.491 31.1987C311.594 30.9798 311.543 30.7995 311.465 30.645C311.388 30.4905 310.744 28.9194 310.487 28.2755C310.229 27.6574 309.959 27.7347 309.766 27.7218H309.147C308.929 27.7218 308.594 27.799 308.298 28.121C308.014 28.4429 307.19 29.2156 307.19 30.7867C307.19 32.3577 308.336 33.8773 308.491 34.0833C308.645 34.3023 310.744 37.5217 313.938 38.8996C314.698 39.2344 315.29 39.4276 315.754 39.5692C316.513 39.8139 317.209 39.7753 317.763 39.698C318.381 39.6079 319.656 38.9253 319.913 38.1784C320.184 37.4315 320.184 36.8005 320.093 36.6589C320.003 36.5172 319.81 36.4528 319.488 36.2983Z" fill="white"/>
</svg>
