<svg width="69" height="69" viewBox="0 0 69 69" fill="none" xmlns="http://www.w3.org/2000/svg">
<circle cx="34.2476" cy="34.2476" r="34.2476" fill="#0390AB"/>
<path d="M22.5215 32.4481C22.5215 27.592 22.5215 25.1632 24.0307 23.6553C25.54 22.1473 27.9674 22.146 32.8236 22.146H35.3992C40.2553 22.146 42.684 22.146 44.192 23.6553C45.7 25.1645 45.7013 27.592 45.7013 32.4481V35.0237C45.7013 39.8798 45.7013 42.3086 44.192 43.8165C42.6828 45.3245 40.2553 45.3258 35.3992 45.3258H32.8236C27.9674 45.3258 25.5387 45.3258 24.0307 43.8165C22.5228 42.3073 22.5215 39.8798 22.5215 35.0237V32.4481Z" stroke="white" stroke-width="3.08333"/>
<path d="M39.9063 29.8726C40.9731 29.8726 41.8379 29.0077 41.8379 27.9409C41.8379 26.8741 40.9731 26.0093 39.9063 26.0093C38.8394 26.0093 37.9746 26.8741 37.9746 27.9409C37.9746 29.0077 38.8394 29.8726 39.9063 29.8726Z" fill="white"/>
<path d="M34.1113 37.5992C36.245 37.5992 37.9746 35.8695 37.9746 33.7359C37.9746 31.6022 36.245 29.8726 34.1113 29.8726C31.9777 29.8726 30.248 31.6022 30.248 33.7359C30.248 35.8695 31.9777 37.5992 34.1113 37.5992Z" stroke="white" stroke-width="3.08333"/>
</svg>
