<svg width="24" height="27" viewBox="0 0 24 27" fill="none" xmlns="http://www.w3.org/2000/svg">
<path fill-rule="evenodd" clip-rule="evenodd" d="M12.2079 0.0223078C13.6683 -5.98042e-09 15.1175 0.0111372 16.5667 0C16.6559 1.70569 17.269 3.4448 18.5175 4.64878C19.7661 5.88625 21.5275 6.45481 23.2442 6.64431V11.137C21.639 11.0813 20.0225 10.7468 18.5621 10.0557C17.9267 9.76579 17.3359 9.3979 16.7562 9.01887C16.7451 12.2741 16.7674 15.5294 16.7339 18.7735C16.6447 20.3343 16.1319 21.8839 15.229 23.1659C13.7686 25.3064 11.238 26.6999 8.64057 26.7445C7.04645 26.8337 5.4523 26.3989 4.09226 25.5962C1.84041 24.2696 0.257391 21.8393 0.0233102 19.2306C0.00100237 18.6732 -0.0101348 18.1158 0.0121395 17.5695C0.212809 15.4514 1.26071 13.4224 2.88831 12.04C4.73881 10.4347 7.32511 9.66546 9.74419 10.1226C9.76649 11.7725 9.69964 13.4224 9.69964 15.0723C8.59595 14.7156 7.30284 14.8159 6.33297 15.4848C5.63066 15.9419 5.09557 16.6442 4.81687 17.4358C4.58276 18.0043 4.64965 18.6286 4.66079 19.2306C4.92835 21.0589 6.68969 22.5974 8.56254 22.4301C9.81111 22.419 11.0039 21.6943 11.6505 20.6353C11.8623 20.2674 12.0964 19.8883 12.1075 19.4536C12.219 17.458 12.1744 15.4737 12.1856 13.4781C12.1967 8.98542 12.1744 4.50387 12.2079 0.0223078Z" fill="#0390AB"/>
</svg>
