<svg width="69" height="69" viewBox="0 0 69 69" fill="none" xmlns="http://www.w3.org/2000/svg">
<circle cx="34.2476" cy="34.2476" r="34.2476" fill="#0390AB"/>
<path fill-rule="evenodd" clip-rule="evenodd" d="M34.9911 20.474C36.4515 20.4517 37.9007 20.4628 39.3499 20.4517C39.4391 22.1574 40.0522 23.8965 41.3007 25.1004C42.5493 26.3379 44.3107 26.9065 46.0274 27.096V31.5887C44.4222 31.5329 42.8057 31.1985 41.3454 30.5073C40.7099 30.2175 40.1191 29.8496 39.5394 29.4705C39.5283 32.7258 39.5506 35.9811 39.5171 39.2252C39.4279 40.7859 38.9151 42.3356 38.0122 43.6176C36.5518 45.7581 34.0212 47.1515 31.4238 47.1962C29.8297 47.2853 28.2355 46.8505 26.8755 46.0479C24.6236 44.7213 23.0406 42.2909 22.8065 39.6823C22.7842 39.1248 22.7731 38.5675 22.7953 38.0212C22.996 35.903 24.0439 33.8741 25.6715 32.4917C27.522 30.8864 30.1083 30.1171 32.5274 30.5742C32.5497 32.2242 32.4828 33.8741 32.4828 35.524C31.3792 35.1672 30.086 35.2676 29.1162 35.9365C28.4139 36.3936 27.8788 37.0959 27.6001 37.8874C27.366 38.456 27.4329 39.0803 27.444 39.6823C27.7116 41.5106 29.4729 43.049 31.3457 42.8818C32.5943 42.8707 33.7871 42.146 34.4337 41.0869C34.6455 40.719 34.8796 40.34 34.8907 39.9052C35.0022 37.9097 34.9576 35.9253 34.9688 33.9298C34.9799 29.4371 34.9576 24.9555 34.9911 20.474Z" fill="white"/>
</svg>
