<svg width="69" height="69" viewBox="0 0 69 69" fill="none" xmlns="http://www.w3.org/2000/svg">
<circle cx="34.2476" cy="34.2476" r="34.2476" fill="#0390AB"/>
<path d="M43.1909 24.6054C42.0101 23.413 40.6038 22.4676 39.0539 21.8243C37.5041 21.1809 35.8417 20.8524 34.1636 20.858C27.1324 20.858 21.4018 26.5885 21.4018 33.6197C21.4018 35.8733 21.9942 38.0625 23.1017 39.9942L21.2988 46.6133L28.0596 44.8362C29.9269 45.8535 32.0259 46.3944 34.1636 46.3944C41.1948 46.3944 46.9254 40.6638 46.9254 33.6326C46.9254 30.22 45.599 27.0135 43.1909 24.6054ZM34.1636 44.2309C32.2577 44.2309 30.3905 43.7158 28.755 42.75L28.3687 42.5182L24.3508 43.5742L25.4197 39.6594L25.1621 39.2602C24.103 37.5694 23.5407 35.6148 23.5395 33.6197C23.5395 27.7733 28.3043 23.0085 34.1507 23.0085C36.9838 23.0085 39.6495 24.116 41.6455 26.1249C42.6341 27.1086 43.4174 28.2788 43.9502 29.5676C44.4829 30.8563 44.7545 32.2381 44.7491 33.6326C44.7748 39.4791 40.0101 44.2309 34.1636 44.2309ZM39.9843 36.2983C39.6624 36.1438 38.0913 35.3711 37.808 35.2552C37.5118 35.1522 37.3058 35.1007 37.0868 35.4097C36.8679 35.7317 36.2627 36.4528 36.0824 36.6589C35.9021 36.8778 35.7089 36.9035 35.387 36.7361C35.0651 36.5816 34.0348 36.2339 32.8243 35.1522C31.8714 34.3023 31.2404 33.2592 31.0472 32.9372C30.8669 32.6153 31.0215 32.4479 31.1889 32.2805C31.3305 32.1388 31.5108 31.907 31.6653 31.7267C31.8199 31.5464 31.8843 31.4048 31.9873 31.1987C32.0903 30.9798 32.0388 30.7995 31.9615 30.645C31.8843 30.4905 31.2404 28.9194 30.9828 28.2755C30.7253 27.6574 30.4548 27.7347 30.2617 27.7218H29.6436C29.4246 27.7218 29.0898 27.799 28.7936 28.121C28.5103 28.4429 27.6862 29.2156 27.6862 30.7867C27.6862 32.3577 28.8323 33.8773 28.9868 34.0833C29.1413 34.3023 31.2404 37.5217 34.434 38.8996C35.1938 39.2344 35.7862 39.4276 36.2498 39.5692C37.0096 39.8139 37.705 39.7753 38.2587 39.698C38.8768 39.6079 40.1517 38.9253 40.4093 38.1784C40.6797 37.4315 40.6797 36.8005 40.5896 36.6589C40.4994 36.5172 40.3063 36.4528 39.9843 36.2983Z" fill="white"/>
</svg>
